<svg width="48" height="48" viewBox="0 0 48 48" fill="none" xmlns="http://www.w3.org/2000/svg">
<path d="M43.1988 0H14.4003C13.0755 0.00140618 12.0018 1.07507 12.0004 2.39988L12.0005 2.40025L12.0004 2.40063V29.5992H3.20081C2.98857 29.5991 2.78505 29.6833 2.63505 29.8334C2.48497 29.9835 2.40079 30.187 2.40088 30.3991V42.3978C2.40032 45.4904 4.90631 47.9983 7.99897 47.9999C8.05522 47.9999 8.11221 47.9991 8.16846 47.9976H39.999C43.0901 47.9938 45.5949 45.4889 45.5987 42.3979V2.39997C45.5973 1.07507 44.5236 0.00140618 43.1988 0ZM8.12084 46.3976C7.03771 46.4405 5.98523 46.0321 5.21474 45.2696C4.43553 44.5178 3.99708 43.4805 4.00074 42.3979V31.1993H12.0004V42.1979C12.0371 44.4096 10.3285 46.2592 8.12084 46.3976ZM43.9987 42.3979C43.9961 44.6059 42.2069 46.3951 39.9989 46.3977H11.8331C12.9617 45.2915 13.5985 43.7782 13.6002 42.1979V2.40072L13.6002 2.40035L13.6002 2.39997C13.6005 1.95824 13.9585 1.60033 14.4002 1.60004H43.1987C43.6404 1.60033 43.9984 1.95834 43.9986 2.39997V42.3979H43.9987Z" fill="black" fill-opacity="0.32"/>
<path d="M40.7989 12.0002H35.1992C34.7574 12.0002 34.3993 12.3583 34.3993 12.8002C34.3993 13.242 34.7574 13.6001 35.1992 13.6001H40.7989C41.2407 13.6001 41.5988 13.242 41.5988 12.8002C41.5988 12.3583 41.2407 12.0002 40.7989 12.0002Z" fill="black" fill-opacity="0.32"/>
<path d="M40.7989 5.60052H35.1992C34.7574 5.60052 34.3993 5.95863 34.3993 6.40045C34.3993 6.84228 34.7574 7.20038 35.1992 7.20038H40.7989C41.2407 7.20038 41.5988 6.84228 41.5988 6.40045C41.5988 5.95863 41.2407 5.60052 40.7989 5.60052Z" fill="black" fill-opacity="0.32"/>
<path d="M40.7989 8.80033H35.1992C34.7574 8.80033 34.3993 9.15844 34.3993 9.60026C34.3993 10.0421 34.7574 10.4002 35.1992 10.4002H40.7989C41.2407 10.4002 41.5988 10.0421 41.5988 9.60026C41.5988 9.15844 41.2407 8.80033 40.7989 8.80033Z" fill="black" fill-opacity="0.32"/>
<path d="M40.7989 15.2H35.1992C34.7574 15.2 34.3993 15.5581 34.3993 16C34.3993 16.4418 34.7574 16.7999 35.1992 16.7999H40.7989C41.2407 16.7999 41.5988 16.4418 41.5988 16C41.5988 15.5581 41.2407 15.2 40.7989 15.2Z" fill="black" fill-opacity="0.32"/>
<path d="M40.7989 18.3998H35.1992C34.7574 18.3998 34.3993 18.758 34.3993 19.1998C34.3993 19.6416 34.7574 19.9997 35.1992 19.9997H40.7989C41.2407 19.9997 41.5988 19.6415 41.5988 19.1998C41.5988 18.758 41.2407 18.3998 40.7989 18.3998Z" fill="black" fill-opacity="0.32"/>
<path d="M40.7987 21.5997H15.9999C15.5581 21.5997 15.2 21.9579 15.2 22.3997C15.2 22.8415 15.5581 23.1996 15.9999 23.1996H40.7986C41.2404 23.1996 41.5985 22.8415 41.5985 22.3997C41.5985 21.9579 41.2405 21.5997 40.7987 21.5997Z" fill="black" fill-opacity="0.32"/>
<path d="M40.7987 24.7996H15.9999C15.5581 24.7996 15.2 25.1578 15.2 25.5995C15.2 26.0413 15.5581 26.3994 15.9999 26.3994H40.7986C41.2404 26.3994 41.5985 26.0412 41.5985 25.5995C41.5986 25.1577 41.2405 24.7996 40.7987 24.7996Z" fill="black" fill-opacity="0.32"/>
<path d="M40.7991 27.9994H30.3995C29.9577 27.9994 29.5996 28.3575 29.5996 28.7993C29.5996 29.2411 29.9577 29.5992 30.3995 29.5992H40.799C41.2408 29.5992 41.5989 29.2411 41.5989 28.7993C41.5989 28.3575 41.2409 27.9994 40.7991 27.9994Z" fill="black" fill-opacity="0.32"/>
<path d="M25.5994 27.9994H15.9999C15.5581 27.9994 15.2 28.3575 15.2 28.7993C15.2 29.2411 15.5581 29.5992 15.9999 29.5992H25.5994C26.0412 29.5992 26.3993 29.2411 26.3993 28.7993C26.3993 28.3575 26.0412 27.9994 25.5994 27.9994Z" fill="black" fill-opacity="0.32"/>
<path d="M40.7991 31.1993H30.3995C29.9577 31.1993 29.5996 31.5575 29.5996 31.9992C29.5996 32.4409 29.9577 32.7991 30.3995 32.7991H40.799C41.2408 32.7991 41.5989 32.441 41.5989 31.9992C41.5989 31.5574 41.2409 31.1993 40.7991 31.1993Z" fill="black" fill-opacity="0.32"/>
<path d="M25.5994 31.1993H15.9999C15.5581 31.1993 15.2 31.5575 15.2 31.9992C15.2 32.4409 15.5581 32.7991 15.9999 32.7991H25.5994C26.0412 32.7991 26.3993 32.441 26.3993 31.9992C26.3993 31.5574 26.0412 31.1993 25.5994 31.1993Z" fill="black" fill-opacity="0.32"/>
<path d="M40.7991 34.3991H30.3995C29.9577 34.3991 29.5996 34.7572 29.5996 35.199C29.5996 35.6408 29.9577 35.9989 30.3995 35.9989H40.799C41.2408 35.9989 41.5989 35.6408 41.5989 35.199C41.5989 34.7572 41.2409 34.3991 40.7991 34.3991Z" fill="black" fill-opacity="0.32"/>
<path d="M25.5994 34.3991H15.9999C15.5581 34.3991 15.2 34.7572 15.2 35.199C15.2 35.6408 15.5581 35.9989 15.9999 35.9989H25.5994C26.0412 35.9989 26.3993 35.6408 26.3993 35.199C26.3993 34.7572 26.0412 34.3991 25.5994 34.3991Z" fill="black" fill-opacity="0.32"/>
<path d="M40.7991 37.5989H30.3995C29.9577 37.5989 29.5996 37.957 29.5996 38.3988C29.5996 38.8406 29.9577 39.1987 30.3995 39.1987H40.799C41.2408 39.1987 41.5989 38.8406 41.5989 38.3988C41.5989 37.957 41.2409 37.5989 40.7991 37.5989Z" fill="black" fill-opacity="0.32"/>
<path d="M25.5994 37.5989H15.9999C15.5581 37.5989 15.2 37.957 15.2 38.3988C15.2 38.8406 15.5581 39.1987 15.9999 39.1987H25.5994C26.0412 39.1987 26.3993 38.8406 26.3993 38.3988C26.3993 37.957 26.0412 37.5989 25.5994 37.5989Z" fill="black" fill-opacity="0.32"/>
<path d="M40.7991 40.7988H30.3995C29.9577 40.7988 29.5996 41.1569 29.5996 41.5987C29.5996 42.0405 29.9577 42.3986 30.3995 42.3986H40.799C41.2408 42.3986 41.5989 42.0405 41.5989 41.5987C41.5989 41.1569 41.2409 40.7988 40.7991 40.7988Z" fill="black" fill-opacity="0.32"/>
<path d="M25.5994 40.7988H15.9999C15.5581 40.7988 15.2 41.1569 15.2 41.5987C15.2 42.0405 15.5581 42.3986 15.9999 42.3986H25.5994C26.0412 42.3986 26.3993 42.0405 26.3993 41.5987C26.3993 41.1569 26.0412 40.7988 25.5994 40.7988Z" fill="black" fill-opacity="0.32"/>
<path d="M15.9999 13.7238V18.3999C16.0011 19.283 16.7167 19.9986 17.5999 19.9998H30.3992C31.2824 19.9987 31.998 19.283 31.9992 18.3999V13.7238C32.5078 13.2549 32.7977 12.5952 32.7991 11.9033V8.80034C32.798 7.91717 32.0823 7.20161 31.1992 7.20039H29.5992V5.60054C29.5981 4.71736 28.8824 4.00181 27.9993 4.00059H19.9997C19.1165 4.00171 18.401 4.71736 18.3997 5.60054V7.20049H16.7998C15.9166 7.20161 15.201 7.91726 15.1998 8.80044V11.9034C15.2014 12.5951 15.4914 13.2549 15.9999 13.7238ZM30.3992 18.3999H17.5999V14.3903C17.6327 14.3915 17.6636 14.4 17.6967 14.4H23.1996V15.2C23.1996 15.6418 23.5577 15.9999 23.9995 15.9999C24.4413 15.9999 24.7994 15.6418 24.7994 15.2V14.4H30.3023C30.3355 14.4 30.3663 14.3914 30.3991 14.3903V18.3999H30.3992ZM19.9998 5.60054H27.9993V7.20049H19.9998V5.60054ZM16.8 8.80034H31.1992V11.9033C31.1987 12.3984 30.7975 12.7996 30.3024 12.8002H17.6967C17.2017 12.7996 16.8004 12.3984 16.7999 11.9033V8.80034H16.8Z" fill="black" fill-opacity="0.32"/>
</svg>
