<svg width="48" height="48" viewBox="0 0 48 48" fill="none" xmlns="http://www.w3.org/2000/svg">
<path d="M46.0515 27.4285C46.0515 26.5536 45.7923 25.7385 45.3481 25.0541C45.5282 23.9266 45.6205 22.7735 45.6205 21.6208C45.6206 9.69911 35.9215 0 23.9998 0C12.078 0 2.37894 9.69911 2.37894 21.6208C2.37894 22.7738 2.47123 23.9271 2.65147 25.0549C2.20755 25.7391 1.94861 26.5539 1.94861 27.4284C1.94861 29.6066 3.54921 31.4177 5.63587 31.7483C6.74939 40.8928 14.5599 48 24.0001 48C33.4402 48 41.2509 40.8929 42.3643 31.7483C44.451 31.4178 46.0515 29.6068 46.0515 27.4285ZM3.59659 27.4285C3.59659 26.2124 4.3971 25.1801 5.49878 24.8299V29.4989C5.49878 29.6766 5.50187 29.8535 5.50691 30.03C4.40112 29.6824 3.59659 28.6476 3.59659 27.4285ZM24.0002 46.352C14.7072 46.352 7.14686 38.7917 7.14686 29.4988L7.14676 20.9783C7.14676 19.7055 7.8142 18.5794 8.93246 17.966C9.45373 17.6802 10.0161 17.5379 10.5763 17.5379C11.2063 17.5379 11.8333 17.718 12.3948 18.0758C15.8593 20.2841 19.8723 21.4514 23.9998 21.4514C28.1273 21.4514 32.1405 20.2841 35.6054 18.0757C36.6659 17.3997 37.96 17.3586 39.0673 17.9659C40.1854 18.5792 40.8532 19.7053 40.8532 20.9781L40.8535 29.4989C40.8535 38.7917 33.2931 46.352 24.0002 46.352ZM39.8598 16.5209C38.2167 15.6199 36.2953 15.6816 34.7196 16.686C31.5198 18.7255 27.8129 19.8035 23.9998 19.8035C20.1866 19.8035 16.48 18.7255 13.2806 16.6861C11.7047 15.6816 9.78271 15.62 8.13998 16.5211C6.48602 17.4284 5.49867 19.0945 5.49878 20.9783V23.1332C5.0085 23.227 4.54738 23.403 4.12961 23.6462C4.06204 22.9751 4.02692 22.2979 4.02692 21.6207C4.02692 10.6078 12.9867 1.64798 23.9998 1.64798C35.0128 1.64798 43.9726 10.6078 43.9726 21.6208C43.9726 22.2979 43.9375 22.9749 43.87 23.6459C43.4524 23.4028 42.9913 23.227 42.5013 23.1331L42.5012 20.978C42.5011 19.0943 41.5136 17.428 39.8598 16.5209ZM42.4933 30.03C42.4984 29.8535 42.5015 29.6766 42.5015 29.4989L42.5013 24.8299C43.6031 25.18 44.4036 26.2124 44.4036 27.4285C44.4036 28.6476 43.5992 29.6824 42.4933 30.03Z" fill="black" fill-opacity="0.32"/>
<path d="M16.4601 30.9303C17.2258 30.9303 17.8466 30.3095 17.8466 29.5437C17.8466 28.778 17.2258 28.1572 16.4601 28.1572C15.6943 28.1572 15.0735 28.778 15.0735 29.5437C15.0735 30.3095 15.6943 30.9303 16.4601 30.9303Z" fill="black" fill-opacity="0.32"/>
<path d="M31.7997 30.9302C32.5654 30.9302 33.1861 30.3094 33.1861 29.5437C33.1861 28.778 32.5654 28.1572 31.7997 28.1572C31.034 28.1572 30.4132 28.778 30.4132 29.5437C30.4132 30.3094 31.034 30.9302 31.7997 30.9302Z" fill="black" fill-opacity="0.32"/>
<path d="M14.2764 27.649C14.3951 27.649 14.5157 27.6233 14.6301 27.5688L17.7496 26.0834C18.1605 25.8878 18.335 25.396 18.1393 24.9852C17.9437 24.5744 17.4521 24.3993 17.0411 24.5955L13.9216 26.081C13.5107 26.2766 13.3362 26.7683 13.5319 27.1792C13.6731 27.4757 13.9684 27.649 14.2764 27.649Z" fill="black" fill-opacity="0.32"/>
<path d="M30.2502 26.0833L33.3697 27.5688C33.4841 27.6233 33.6047 27.649 33.7234 27.649C34.0314 27.649 34.3268 27.4756 34.468 27.179C34.6636 26.7682 34.4892 26.2765 34.0784 26.0809L30.9588 24.5954C30.5476 24.3993 30.0562 24.5743 29.8607 24.9851C29.665 25.396 29.8394 25.8878 30.2502 26.0833Z" fill="black" fill-opacity="0.32"/>
<path d="M33.5236 33.4006C31.4259 34.6821 29.0178 35.3596 26.5598 35.3596H21.4412C18.9832 35.3596 16.5751 34.6822 14.4772 33.4006C14.089 33.1636 13.5817 33.2859 13.3445 33.6743C13.1073 34.0626 13.2299 34.5697 13.6182 34.807C15.9748 36.2466 18.68 37.0075 21.4412 37.0075H26.5598C29.3211 37.0075 32.0262 36.2465 34.3828 34.807C34.7712 34.5697 34.8936 34.0625 34.6564 33.6742C34.4192 33.2861 33.912 33.1635 33.5236 33.4006Z" fill="black" fill-opacity="0.32"/>
<path d="M26.5593 37.8848H21.4407C20.9856 37.8848 20.6167 38.2537 20.6167 38.7088C20.6167 39.1638 20.9856 39.5327 21.4407 39.5327H26.5593C27.0144 39.5327 27.3833 39.1638 27.3833 38.7088C27.3833 38.2537 27.0144 37.8848 26.5593 37.8848Z" fill="black" fill-opacity="0.32"/>
</svg>
